<?xml version="1.0" encoding="utf-8"?>
<!-- Generator: Adobe Illustrator 19.2.0, SVG Export Plug-In . SVG Version: 6.00 Build 0)  -->
<svg version="1.1" id="Layer_1" xmlns="http://www.w3.org/2000/svg" xmlns:xlink="http://www.w3.org/1999/xlink" x="0px" y="0px"
	 viewBox="0 0 1500 500" style="enable-background:new 0 0 1500 500;" xml:space="preserve">
<style type="text/css">
	.st0{fill:#292F36;}
	.st1{fill:#F7FFF7;}
	.st2{fill:#74B3CE;}
	.st3{fill:#6DD3CE;}
	.st4{fill:#2D2D2A;}
</style>
<g>
	<g>
		<g>
			<g>
				<path class="st0" d="M1192,1263c80-68,90-96,138-104s72-26,94-66s38-62,82-84s90-64,98-96s30-52,56-66s100-58,100-104
					s42-90,70-108s72-32,78-70s32-50,52-68s46-36,46-82s8-34-22-64s-46-32-80-18s-100-20-124,8s-137,72-180.5,106S1366,571,1358,613
					s-114,116-128,177s-60,207-64,250s-16,115-12,173S1192,1263,1192,1263z"/>
				<path class="st1" d="M1164,1237c80-68,90-96,138-104s72-26,94-66s38-62,82-84s90-64,98-96s30-52,56-66s100-58,100-104
					s42-90,70-108s72-32,78-70s32-50,52-68s46-36,46-82s8-34-22-64s-46-32-80-18s-100-20-124,8s-137,72-180.5,106S1338,545,1330,587
					s-114,116-128,177s-60,207-64,250s-16,115-12,173S1164,1237,1164,1237z"/>
				<path class="st2" d="M1136,1217c80-68,90-96,138-104s72-26,94-66s38-62,82-84s90-64,98-96s30-52,56-66s100-58,100-104
					s42-90,70-108s72-32,78-70s32-50,52-68s46-36,46-82s8-34-22-64s-46-32-80-18s-100-20-124,8s-137,72-180.5,106S1310,525,1302,567
					s-114,116-128,177s-60,207-64,250s-16,115-12,173S1136,1217,1136,1217z"/>
				<path class="st3" d="M1112,1198c80-68,90-96,138-104s72-26,94-66s38-62,82-84s90-64,98-96s30-52,56-66s100-58,100-104
					s42-90,70-108s72-32,78-70s32-50,52-68s46-36,46-82s8-34-22-64s-46-32-80-18s-100-20-124,8s-137,72-180.5,106S1286,506,1278,548
					s-114,116-128,177s-60,207-64,250s-16,115-12,173S1112,1198,1112,1198z"/>
				<path class="st4" d="M1084,1171c80-68,90-96,138-104s72-26,94-66s38-62,82-84s90-64,98-96s30-52,56-66s100-58,100-104
					s42-90,70-108s72-32,78-70s32-50,52-68s46-36,46-82s8-34-22-64s-46-32-80-18s-100-20-124,8s-137,72-180.5,106S1258,479,1250,521
					s-114,116-128,177s-60,207-64,250s-16,115-12,173S1084,1171,1084,1171z"/>
			</g>
			<g>
				<path class="st0" d="M1057,1152c80-68,90-96,138-104s72-26,94-66s38-62,82-84s90-64,98-96s30-52,56-66s100-58,100-104
					s42-90,70-108s72-32,78-70s32-50,52-68s46-36,46-82s8-34-22-64s-46-32-80-18s-100-20-124,8s-137,72-180.5,106S1231,460,1223,502
					s-114,116-128,177s-60,207-64,250s-16,115-12,173S1057,1152,1057,1152z"/>
				<path class="st1" d="M1029,1126c80-68,90-96,138-104s72-26,94-66s38-62,82-84s90-64,98-96s30-52,56-66s100-58,100-104
					s42-90,70-108s72-32,78-70s32-50,52-68s46-36,46-82s8-34-22-64s-46-32-80-18s-100-20-124,8s-137,72-180.5,106S1203,434,1195,476
					s-114,116-128,177s-60,207-64,250s-16,115-12,173S1029,1126,1029,1126z"/>
				<path class="st2" d="M1001,1106c80-68,90-96,138-104s72-26,94-66s38-62,82-84s90-64,98-96s30-52,56-66s100-58,100-104
					s42-90,70-108s72-32,78-70s32-50,52-68s46-36,46-82s8-34-22-64s-46-32-80-18s-100-20-124,8s-137,72-180.5,106S1175,414,1167,456
					s-114,116-128,177s-60,207-64,250s-16,115-12,173S1001,1106,1001,1106z"/>
				<path class="st3" d="M977,1087c80-68,90-96,138-104s72-26,94-66s38-62,82-84s90-64,98-96s30-52,56-66s100-58,100-104
					s42-90,70-108s72-32,78-70s32-50,52-68s46-36,46-82s8-34-22-64s-46-32-80-18s-100-20-124,8s-137,72-180.5,106S1151,395,1143,437
					s-114,116-128,177s-60,207-64,250s-16,115-12,173S977,1087,977,1087z"/>
				<path class="st4" d="M949,1060c80-68,90-96,138-104s72-26,94-66s38-62,82-84s90-64,98-96s30-52,56-66s100-58,100-104
					s42-90,70-108s72-32,78-70s32-50,52-68s46-36,46-82s8-34-22-64s-46-32-80-18s-100-20-124,8s-137,72-180.5,106S1123,368,1115,410
					s-114,116-128,177s-60,207-64,250s-16,115-12,173S949,1060,949,1060z"/>
			</g>
		</g>
		<g>
			<g>
				<path class="st0" d="M920,1034c80-68,90-96,138-104s72-26,94-66s38-62,82-84s90-64,98-96s30-52,56-66s100-58,100-104
					s42-90,70-108s72-32,78-70s32-50,52-68s46-36,46-82s8-34-22-64s-46-32-80-18s-100-20-124,8s-137,72-180.5,106S1094,342,1086,384
					S972,500,958,561s-60,207-64,250s-16,115-12,173S920,1034,920,1034z"/>
				<path class="st1" d="M892,1008c80-68,90-96,138-104s72-26,94-66s38-62,82-84s90-64,98-96s30-52,56-66s100-58,100-104
					s42-90,70-108s72-32,78-70s32-50,52-68s46-36,46-82s8-34-22-64s-46-32-80-18s-100-20-124,8s-137,72-180.5,106S1066,316,1058,358
					S944,474,930,535s-60,207-64,250s-16,115-12,173S892,1008,892,1008z"/>
				<path class="st2" d="M864,988c80-68,90-96,138-104s72-26,94-66s38-62,82-84s90-64,98-96s30-52,56-66s100-58,100-104
					s42-90,70-108s72-32,78-70s32-50,52-68s46-36,46-82s8-34-22-64s-46-32-80-18s-100-20-124,8s-137,72-180.5,106S1038,296,1030,338
					S916,454,902,515s-60,207-64,250s-16,115-12,173S864,988,864,988z"/>
				<path class="st3" d="M840,969c80-68,90-96,138-104s72-26,94-66s38-62,82-84s90-64,98-96s30-52,56-66s100-58,100-104
					s42-90,70-108s72-32,78-70s32-50,52-68s46-36,46-82s8-34-22-64s-46-32-80-18s-100-20-124,8s-137,72-180.5,106S1014,277,1006,319
					S892,435,878,496s-60,207-64,250s-16,115-12,173S840,969,840,969z"/>
				<path class="st4" d="M812,942c80-68,90-96,138-104s72-26,94-66s38-62,82-84s90-64,98-96s30-52,56-66s100-58,100-104
					s42-90,70-108s72-32,78-70s32-50,52-68s46-36,46-82s8-34-22-64s-46-32-80-18s-100-20-124,8s-137,72-180.5,106S986,250,978,292
					S864,408,850,469s-60,207-64,250s-16,115-12,173S812,942,812,942z"/>
			</g>
			<g>
				<path class="st0" d="M785,923c80-68,90-96,138-104s72-26,94-66s38-62,82-84s90-64,98-96s30-52,56-66s100-58,100-104
					s42-90,70-108s72-32,78-70s32-50,52-68s46-36,46-82s8-34-22-64s-46-32-80-18s-100-20-124,8s-137,72-180.5,106S959,231,951,273
					S837,389,823,450s-60,207-64,250s-16,115-12,173S785,923,785,923z"/>
				<path class="st1" d="M757,897c80-68,90-96,138-104s72-26,94-66s38-62,82-84s90-64,98-96s30-52,56-66s100-58,100-104
					s42-90,70-108s72-32,78-70s32-50,52-68s46-36,46-82s8-34-22-64s-46-32-80-18s-100-20-124,8s-137,72-180.5,106S931,205,923,247
					S809,363,795,424s-60,207-64,250s-16,115-12,173S757,897,757,897z"/>
				<path class="st2" d="M729,877c80-68,90-96,138-104s72-26,94-66s38-62,82-84s90-64,98-96s30-52,56-66s100-58,100-104
					s42-90,70-108s72-32,78-70s32-50,52-68s46-36,46-82s8-34-22-64s-46-32-80-18s-100-20-124,8s-137,72-180.5,106S903,185,895,227
					S781,343,767,404s-60,207-64,250s-16,115-12,173S729,877,729,877z"/>
				<path class="st3" d="M705,858c80-68,90-96,138-104s72-26,94-66s38-62,82-84s90-64,98-96s30-52,56-66s100-58,100-104
					s42-90,70-108s72-32,78-70s32-50,52-68s46-36,46-82s8-34-22-64s-46-32-80-18s-100-20-124,8S1156,8,1112.5,42S879,166,871,208
					S757,324,743,385s-60,207-64,250s-16,115-12,173S705,858,705,858z"/>
				<path class="st4" d="M677,831c80-68,90-96,138-104s72-26,94-66s38-62,82-84s90-64,98-96s30-52,56-66s100-58,100-104
					s42-90,70-108s72-32,78-70s32-50,52-68s46-36,46-82s8-34-22-64s-46-32-80-18s-100-20-124,8s-137,72-180.5,106S851,139,843,181
					S729,297,715,358s-60,207-64,250s-16,115-12,173S677,831,677,831z"/>
			</g>
		</g>
		<g>
			<g>
				<path class="st0" d="M644,813c80-68,90-96,138-104s72-26,94-66s38-62,82-84s90-64,98-96s30-52,56-66s100-58,100-104
					s42-90,70-108s72-32,78-70s32-50,52-68s46-36,46-82s8-34-22-64s-46-32-80-18s-100-20-124,8S1095-37,1051.5-3S818,121,810,163
					S696,279,682,340s-60,207-64,250s-16,115-12,173S644,813,644,813z"/>
				<path class="st1" d="M616,787c80-68,90-96,138-104s72-26,94-66s38-62,82-84s90-64,98-96s30-52,56-66s100-58,100-104
					s42-90,70-108s72-32,78-70s32-50,52-68s46-36,46-82s8-34-22-64s-46-32-80-18s-100-20-124,8s-137,72-180.5,106S790,95,782,137
					S668,253,654,314s-60,207-64,250s-16,115-12,173S616,787,616,787z"/>
				<path class="st2" d="M588,767c80-68,90-96,138-104s72-26,94-66s38-62,82-84s90-64,98-96s30-52,56-66s100-58,100-104
					s42-90,70-108s72-32,78-70s32-50,52-68s46-36,46-82s8-34-22-64s-46-32-80-18s-100-20-124,8S1039-83,995.5-49S762,75,754,117
					S640,233,626,294s-60,207-64,250s-16,115-12,173S588,767,588,767z"/>
				<path class="st3" d="M564,748c80-68,90-96,138-104s72-26,94-66s38-62,82-84s90-64,98-96s30-52,56-66s100-58,100-104
					s42-90,70-108s72-32,78-70s32-50,52-68s46-36,46-82s8-34-22-64s-46-32-80-18s-100-20-124,8s-137,72-180.5,106S738,56,730,98
					S616,214,602,275s-60,207-64,250s-16,115-12,173S564,748,564,748z"/>
				<path class="st4" d="M536,721c80-68,90-96,138-104s72-26,94-66s38-62,82-84s90-64,98-96s30-52,56-66s100-58,100-104
					s42-90,70-108s72-32,78-70s32-50,52-68s46-36,46-82s8-34-22-64s-46-32-80-18s-100-20-124,8S987-129,943.5-95S710,29,702,71
					S588,187,574,248s-60,207-64,250s-16,115-12,173S536,721,536,721z"/>
			</g>
			<g>
				<path class="st0" d="M509,702c80-68,90-96,138-104s72-26,94-66s38-62,82-84s90-64,98-96s30-52,56-66s100-58,100-104
					s42-90,70-108s72-32,78-70s32-50,52-68s46-36,46-82s8-34-22-64s-46-32-80-18s-100-20-124,8s-137,72-180.5,106S683,10,675,52
					S561,168,547,229s-60,207-64,250s-16,115-12,173S509,702,509,702z"/>
				<path class="st1" d="M481,676c80-68,90-96,138-104s72-26,94-66s38-62,82-84s90-64,98-96s30-52,56-66s100-58,100-104
					s42-90,70-108s72-32,78-70s32-50,52-68s46-36,46-82s8-34-22-64s-46-32-80-18s-100-20-124,8s-137,72-180.5,106S655-16,647,26
					S533,142,519,203s-60,207-64,250s-16,115-12,173S481,676,481,676z"/>
				<path class="st2" d="M453,656c80-68,90-96,138-104s72-26,94-66s38-62,82-84s90-64,98-96s30-52,56-66s100-58,100-104
					s42-90,70-108s72-32,78-70s32-50,52-68s46-36,46-82s8-34-22-64s-46-32-80-18s-100-20-124,8s-137,72-180.5,106S627-36,619,6
					S505,122,491,183s-60,207-64,250s-16,115-12,173S453,656,453,656z"/>
				<path class="st3" d="M429,637c80-68,90-96,138-104s72-26,94-66s38-62,82-84s90-64,98-96s30-52,56-66s100-58,100-104
					s42-90,70-108s72-32,78-70s32-50,52-68s46-36,46-82s8-34-22-64s-46-32-80-18s-100-20-124,8s-137,72-180.5,106S603-55,595-13
					S481,103,467,164s-60,207-64,250s-16,115-12,173S429,637,429,637z"/>
				<path class="st4" d="M401,610c80-68,90-96,138-104s72-26,94-66s38-62,82-84s90-64,98-96s30-52,56-66s100-58,100-104
					s42-90,70-108s72-32,78-70s32-50,52-68s46-36,46-82s8-34-22-64s-46-32-80-18s-100-20-124,8s-137,72-180.5,106S575-82,567-40
					S453,76,439,137s-60,207-64,250s-16,115-12,173S401,610,401,610z"/>
			</g>
		</g>
		<g>
			<g>
				<path class="st0" d="M375,584c80-68,90-96,138-104s72-26,94-66s38-62,82-84s90-64,98-96s30-52,56-66s100-58,100-104
					s42-90,70-108s72-32,78-70s32-50,52-68s46-36,46-82s8-34-22-64s-46-32-80-18s-100-20-124,8s-137,72-180.5,106S549-108,541-66
					S427,50,413,111s-60,207-64,250s-16,115-12,173S375,584,375,584z"/>
				<path class="st1" d="M347,558c80-68,90-96,138-104s72-26,94-66s38-62,82-84s90-64,98-96s30-52,56-66S915,84,915,38s42-90,70-108
					s72-32,78-70s32-50,52-68s46-36,46-82s8-34-22-64s-46-32-80-18s-100-20-124,8s-137,72-180.5,106S521-134,513-92S399,24,385,85
					s-60,207-64,250s-16,115-12,173S347,558,347,558z"/>
				<path class="st2" d="M319,538c80-68,90-96,138-104s72-26,94-66s38-62,82-84s90-64,98-96s30-52,56-66S887,64,887,18s42-90,70-108
					s72-32,78-70s32-50,52-68s46-36,46-82s8-34-22-64s-46-32-80-18s-100-20-124,8s-137,72-180.5,106S493-154,485-112S371,4,357,65
					s-60,207-64,250s-16,115-12,173S319,538,319,538z"/>
				<path class="st3" d="M295,519c80-68,90-96,138-104s72-26,94-66s38-62,82-84s90-64,98-96s30-52,56-66S863,45,863-1s42-90,70-108
					s72-32,78-70s32-50,52-68s46-36,46-82s8-34-22-64s-46-32-80-18s-100-20-124,8s-137,72-180.5,106S469-173,461-131S347-15,333,46
					s-60,207-64,250s-16,115-12,173S295,519,295,519z"/>
				<path class="st4" d="M267,492c80-68,90-96,138-104s72-26,94-66s38-62,82-84s90-64,98-96s30-52,56-66S835,18,835-28s42-90,70-108
					s72-32,78-70s32-50,52-68s46-36,46-82s8-34-22-64s-46-32-80-18s-100-20-124,8s-137,72-180.5,106S441-200,433-158S319-42,305,19
					s-60,207-64,250s-16,115-12,173S267,492,267,492z"/>
			</g>
			<g>
				<path class="st0" d="M240,473c80-68,90-96,138-104s72-26,94-66s38-62,82-84s90-64,98-96s30-52,56-66S808-1,808-47s42-90,70-108
					s72-32,78-70s32-50,52-68s46-36,46-82s8-34-22-64s-46-32-80-18s-100-20-124,8s-137,72-180.5,106S414-219,406-177S292-61,278,0
					s-60,207-64,250s-16,115-12,173S240,473,240,473z"/>
				<path class="st1" d="M212,447c80-68,90-96,138-104s72-26,94-66s38-62,82-84s90-64,98-96s30-52,56-66S780-27,780-73s42-90,70-108
					s72-32,78-70s32-50,52-68s46-36,46-82s8-34-22-64s-46-32-80-18s-100-20-124,8s-137,72-180.5,106S386-245,378-203S264-87,250-26
					s-60,207-64,250s-16,115-12,173S212,447,212,447z"/>
				<path class="st2" d="M184,427c80-68,90-96,138-104s72-26,94-66s38-62,82-84s90-64,98-96s30-52,56-66S752-47,752-93s42-90,70-108
					s72-32,78-70s32-50,52-68s46-36,46-82s8-34-22-64s-46-32-80-18s-100-20-124,8s-137,72-180.5,106S358-265,350-223S236-107,222-46
					s-60,207-64,250s-16,115-12,173S184,427,184,427z"/>
				<path class="st3" d="M160,408c80-68,90-96,138-104s72-26,94-66s38-62,82-84s90-64,98-96s30-52,56-66s100-58,100-104
					s42-90,70-108s72-32,78-70s32-50,52-68s46-36,46-82s8-34-22-64s-46-32-80-18s-100-20-124,8s-137,72-180.5,106S334-284,326-242
					S212-126,198-65s-60,207-64,250s-16,115-12,173S160,408,160,408z"/>
				<path class="st4" d="M132,381c80-68,90-96,138-104s72-26,94-66s38-62,82-84s90-64,98-96s30-52,56-66s100-58,100-104
					s42-90,70-108s72-32,78-70s32-50,52-68s46-36,46-82s8-34-22-64s-46-32-80-18s-100-20-124,8s-137,72-180.5,106S306-311,298-269
					S184-153,170-92s-60,207-64,250S90,273,94,331S132,381,132,381z"/>
			</g>
		</g>
	</g>
	<g>
		<g>
			<g>
				<path class="st0" d="M653,1279c80-68,90-96,138-104s72-26,94-66s38-62,82-84s90-64,98-96s30-52,56-66s100-58,100-104
					s42-90,70-108s72-32,78-70s32-50,52-68s46-36,46-82s8-34-22-64s-46-32-80-18s-100-20-124,8s-137,72-180.5,106S827,587,819,629
					S705,745,691,806s-60,207-64,250s-16,115-12,173S653,1279,653,1279z"/>
				<path class="st1" d="M625,1253c80-68,90-96,138-104s72-26,94-66s38-62,82-84s90-64,98-96s30-52,56-66s100-58,100-104
					s42-90,70-108s72-32,78-70s32-50,52-68s46-36,46-82s8-34-22-64s-46-32-80-18s-100-20-124,8s-137,72-180.5,106S799,561,791,603
					S677,719,663,780s-60,207-64,250s-16,115-12,173S625,1253,625,1253z"/>
				<path class="st2" d="M597,1233c80-68,90-96,138-104s72-26,94-66s38-62,82-84s90-64,98-96s30-52,56-66s100-58,100-104
					s42-90,70-108s72-32,78-70s32-50,52-68s46-36,46-82s8-34-22-64s-46-32-80-18s-100-20-124,8s-137,72-180.5,106S771,541,763,583
					S649,699,635,760s-60,207-64,250s-16,115-12,173S597,1233,597,1233z"/>
				<path class="st3" d="M573,1214c80-68,90-96,138-104s72-26,94-66s38-62,82-84s90-64,98-96s30-52,56-66s100-58,100-104
					s42-90,70-108s72-32,78-70s32-50,52-68s46-36,46-82s8-34-22-64s-46-32-80-18s-100-20-124,8s-137,72-180.5,106S747,522,739,564
					S625,680,611,741s-60,207-64,250s-16,115-12,173S573,1214,573,1214z"/>
				<path class="st4" d="M545,1187c80-68,90-96,138-104s72-26,94-66s38-62,82-84s90-64,98-96s30-52,56-66s100-58,100-104
					s42-90,70-108s72-32,78-70s32-50,52-68s46-36,46-82s8-34-22-64s-46-32-80-18s-100-20-124,8s-137,72-180.5,106S719,495,711,537
					S597,653,583,714s-60,207-64,250s-16,115-12,173S545,1187,545,1187z"/>
			</g>
			<g>
				<path class="st0" d="M518,1168c80-68,90-96,138-104s72-26,94-66s38-62,82-84s90-64,98-96s30-52,56-66s100-58,100-104
					s42-90,70-108s72-32,78-70s32-50,52-68s46-36,46-82s8-34-22-64s-46-32-80-18s-100-20-124,8s-137,72-180.5,106S692,476,684,518
					S570,634,556,695s-60,207-64,250s-16,115-12,173S518,1168,518,1168z"/>
				<path class="st1" d="M490,1142c80-68,90-96,138-104s72-26,94-66s38-62,82-84s90-64,98-96s30-52,56-66s100-58,100-104
					s42-90,70-108s72-32,78-70s32-50,52-68s46-36,46-82s8-34-22-64s-46-32-80-18s-100-20-124,8s-137,72-180.5,106S664,450,656,492
					S542,608,528,669s-60,207-64,250s-16,115-12,173S490,1142,490,1142z"/>
				<path class="st2" d="M462,1122c80-68,90-96,138-104s72-26,94-66s38-62,82-84s90-64,98-96s30-52,56-66s100-58,100-104
					s42-90,70-108s72-32,78-70s32-50,52-68s46-36,46-82s8-34-22-64s-46-32-80-18s-100-20-124,8s-137,72-180.5,106S636,430,628,472
					S514,588,500,649s-60,207-64,250s-16,115-12,173S462,1122,462,1122z"/>
				<path class="st3" d="M438,1103c80-68,90-96,138-104s72-26,94-66s38-62,82-84s90-64,98-96s30-52,56-66s100-58,100-104
					s42-90,70-108s72-32,78-70s32-50,52-68s46-36,46-82s8-34-22-64s-46-32-80-18s-100-20-124,8s-137,72-180.5,106S612,411,604,453
					S490,569,476,630s-60,207-64,250s-16,115-12,173S438,1103,438,1103z"/>
				<path class="st4" d="M410,1076c80-68,90-96,138-104s72-26,94-66s38-62,82-84s90-64,98-96s30-52,56-66s100-58,100-104
					s42-90,70-108s72-32,78-70s32-50,52-68s46-36,46-82s8-34-22-64s-46-32-80-18s-100-20-124,8s-137,72-180.5,106S584,384,576,426
					S462,542,448,603s-60,207-64,250s-16,115-12,173S410,1076,410,1076z"/>
			</g>
		</g>
		<g>
			<g>
				<path class="st0" d="M381,1050c80-68,90-96,138-104s72-26,94-66s38-62,82-84s90-64,98-96s30-52,56-66s100-58,100-104
					s42-90,70-108s72-32,78-70s32-50,52-68s46-36,46-82s8-34-22-64s-46-32-80-18s-100-20-124,8s-137,72-180.5,106S555,358,547,400
					S433,516,419,577s-60,207-64,250s-16,115-12,173S381,1050,381,1050z"/>
				<path class="st1" d="M353,1024c80-68,90-96,138-104s72-26,94-66s38-62,82-84s90-64,98-96s30-52,56-66s100-58,100-104
					s42-90,70-108s72-32,78-70s32-50,52-68s46-36,46-82s8-34-22-64s-46-32-80-18s-100-20-124,8s-137,72-180.5,106S527,332,519,374
					S405,490,391,551s-60,207-64,250s-16,115-12,173S353,1024,353,1024z"/>
				<path class="st2" d="M325,1004c80-68,90-96,138-104s72-26,94-66s38-62,82-84s90-64,98-96s30-52,56-66s100-58,100-104
					s42-90,70-108s72-32,78-70s32-50,52-68s46-36,46-82s8-34-22-64s-46-32-80-18s-100-20-124,8s-137,72-180.5,106S499,312,491,354
					S377,470,363,531s-60,207-64,250s-16,115-12,173S325,1004,325,1004z"/>
				<path class="st3" d="M301,985c80-68,90-96,138-104s72-26,94-66s38-62,82-84s90-64,98-96s30-52,56-66s100-58,100-104
					s42-90,70-108s72-32,78-70s32-50,52-68s46-36,46-82s8-34-22-64s-46-32-80-18s-100-20-124,8s-137,72-180.5,106S475,293,467,335
					S353,451,339,512s-60,207-64,250s-16,115-12,173S301,985,301,985z"/>
				<path class="st4" d="M273,958c80-68,90-96,138-104s72-26,94-66s38-62,82-84s90-64,98-96s30-52,56-66s100-58,100-104
					s42-90,70-108s72-32,78-70s32-50,52-68s46-36,46-82s8-34-22-64s-46-32-80-18S885,8,861,36s-137,72-180.5,106S447,266,439,308
					S325,424,311,485s-60,207-64,250s-16,115-12,173S273,958,273,958z"/>
			</g>
			<g>
				<path class="st0" d="M246,939c80-68,90-96,138-104s72-26,94-66s38-62,82-84s90-64,98-96s30-52,56-66s100-58,100-104
					s42-90,70-108s72-32,78-70s32-50,52-68s46-36,46-82s8-34-22-64S992-5,958,9s-100-20-124,8S697,89,653.5,123S420,247,412,289
					S298,405,284,466s-60,207-64,250s-16,115-12,173S246,939,246,939z"/>
				<path class="st1" d="M218,913c80-68,90-96,138-104s72-26,94-66s38-62,82-84s90-64,98-96s30-52,56-66s100-58,100-104
					s42-90,70-108s72-32,78-70s32-50,52-68s46-36,46-82s8-34-22-64s-46-32-80-18S830-37,806-9S669,63,625.5,97S392,221,384,263
					S270,379,256,440s-60,207-64,250s-16,115-12,173S218,913,218,913z"/>
				<path class="st2" d="M190,893c80-68,90-96,138-104s72-26,94-66s38-62,82-84s90-64,98-96s30-52,56-66s100-58,100-104
					s42-90,70-108s72-32,78-70s32-50,52-68s46-36,46-82s8-34-22-64s-46-32-80-18s-100-20-124,8S641,43,597.5,77S364,201,356,243
					S242,359,228,420s-60,207-64,250s-16,115-12,173S190,893,190,893z"/>
				<path class="st3" d="M166,874c80-68,90-96,138-104s72-26,94-66s38-62,82-84s90-64,98-96s30-52,56-66s100-58,100-104
					s42-90,70-108s72-32,78-70s32-50,52-68s46-36,46-82s8-34-22-64s-46-32-80-18s-100-20-124,8S617,24,573.5,58S340,182,332,224
					S218,340,204,401s-60,207-64,250s-16,115-12,173S166,874,166,874z"/>
				<path class="st4" d="M138,847c80-68,90-96,138-104s72-26,94-66s38-62,82-84s90-64,98-96s30-52,56-66s100-58,100-104
					s42-90,70-108s72-32,78-70s32-50,52-68s46-36,46-82s8-34-22-64s-46-32-80-18s-100-20-124,8S589-3,545.5,31S312,155,304,197
					S190,313,176,374s-60,207-64,250s-16,115-12,173S138,847,138,847z"/>
			</g>
		</g>
		<g>
			<g>
				<path class="st0" d="M105,829c80-68,90-96,138-104s72-26,94-66s38-62,82-84s90-64,98-96s30-52,56-66s100-58,100-104
					s42-90,70-108s72-32,78-70s32-50,52-68s46-36,46-82s8-34-22-64s-46-32-80-18s-100-20-124,8S556-21,512.5,13S279,137,271,179
					S157,295,143,356S83,563,79,606S63,721,67,779S105,829,105,829z"/>
				<path class="st1" d="M77,803c80-68,90-96,138-104s72-26,94-66s38-62,82-84s90-64,98-96s30-52,56-66s100-58,100-104s42-90,70-108
					s72-32,78-70s32-50,52-68s46-36,46-82s8-34-22-64s-46-32-80-18s-100-20-124,8S528-47,484.5-13S251,111,243,153S129,269,115,330
					S55,537,51,580S35,695,39,753S77,803,77,803z"/>
				<path class="st2" d="M49,783c80-68,90-96,138-104s72-26,94-66s38-62,82-84s90-64,98-96s30-52,56-66s100-58,100-104s42-90,70-108
					s72-32,78-70s32-50,52-68s46-36,46-82s8-34-22-64s-46-32-80-18s-100-20-124,8S500-67,456.5-33S223,91,215,133S101,249,87,310
					S27,517,23,560S7,675,11,733S49,783,49,783z"/>
				<path class="st3" d="M25,764c80-68,90-96,138-104s72-26,94-66s38-62,82-84s90-64,98-96s30-52,56-66s100-58,100-104s42-90,70-108
					s72-32,78-70s32-50,52-68s46-36,46-82s8-34-22-64s-46-32-80-18s-100-20-124,8S476-86,432.5-52S199,72,191,114S77,230,63,291
					S3,498-1,541s-16,115-12,173S25,764,25,764z"/>
				<path class="st4" d="M-3,737c80-68,90-96,138-104s72-26,94-66s38-62,82-84s90-64,98-96s30-52,56-66s100-58,100-104s42-90,70-108
					s72-32,78-70s32-50,52-68s46-36,46-82s8-34-22-64s-46-32-80-18s-100-20-124,8S448-113,404.5-79S171,45,163,87S49,203,35,264
					s-60,207-64,250s-16,115-12,173S-3,737-3,737z"/>
			</g>
			<g>
				<path class="st0" d="M-30,718c80-68,90-96,138-104s72-26,94-66s38-62,82-84s90-64,98-96s30-52,56-66s100-58,100-104
					s42-90,70-108s72-32,78-70s32-50,52-68s46-36,46-82s8-34-22-64s-46-32-80-18s-100-20-124,8S421-132,377.5-98S144,26,136,68
					S22,184,8,245s-60,207-64,250s-16,115-12,173S-30,718-30,718z"/>
				<path class="st1" d="M-58,692c80-68,90-96,138-104s72-26,94-66s38-62,82-84s90-64,98-96s30-52,56-66s100-58,100-104
					s42-90,70-108s72-32,78-70s32-50,52-68s46-36,46-82s8-34-22-64s-46-32-80-18s-100-20-124,8s-137,72-180.5,106S116,0,108,42
					S-6,158-20,219s-60,207-64,250s-16,115-12,173S-58,692-58,692z"/>
				<path class="st2" d="M-86,672c80-68,90-96,138-104s72-26,94-66s38-62,82-84s90-64,98-96s30-52,56-66s100-58,100-104
					s42-90,70-108s72-32,78-70s32-50,52-68s46-36,46-82s8-34-22-64s-46-32-80-18s-100-20-124,8s-137,72-180.5,106S88-20,80,22
					S-34,138-48,199s-60,207-64,250s-16,115-12,173S-86,672-86,672z"/>
				<path class="st3" d="M-110,653c80-68,90-96,138-104s72-26,94-66s38-62,82-84s90-64,98-96s30-52,56-66s100-58,100-104
					s42-90,70-108s72-32,78-70s32-50,52-68s46-36,46-82s8-34-22-64s-46-32-80-18s-100-20-124,8s-137,72-180.5,106S64-39,56,3
					S-58,119-72,180s-60,207-64,250s-16,115-12,173S-110,653-110,653z"/>
				<path class="st4" d="M-138,626c80-68,90-96,138-104s72-26,94-66s38-62,82-84s90-64,98-96s30-52,56-66s100-58,100-104
					s42-90,70-108s72-32,78-70s32-50,52-68s46-36,46-82s8-34-22-64s-46-32-80-18s-100-20-124,8s-137,72-180.5,106S36-66,28-24
					S-86,92-100,153s-60,207-64,250s-16,115-12,173S-138,626-138,626z"/>
			</g>
		</g>
		<g>
			<g>
				<path class="st0" d="M-164,600c80-68,90-96,138-104s72-26,94-66s38-62,82-84s90-64,98-96s30-52,56-66s100-58,100-104
					s42-90,70-108s72-32,78-70s32-50,52-68s46-36,46-82s8-34-22-64s-46-32-80-18s-100-20-124,8s-137,72-180.5,106S10-92,2-50
					S-112,66-126,127s-60,207-64,250s-16,115-12,173S-164,600-164,600z"/>
				<path class="st1" d="M-192,574c80-68,90-96,138-104s72-26,94-66s38-62,82-84s90-64,98-96s30-52,56-66s100-58,100-104
					s42-90,70-108s72-32,78-70s32-50,52-68s46-36,46-82s8-34-22-64s-46-32-80-18s-100-20-124,8s-137,72-180.5,106S-18-118-26-76
					S-140,40-154,101s-60,207-64,250s-16,115-12,173S-192,574-192,574z"/>
				<path class="st2" d="M-220,554c80-68,90-96,138-104s72-26,94-66s38-62,82-84s90-64,98-96s30-52,56-66S348,80,348,34
					s42-90,70-108s72-32,78-70s32-50,52-68s46-36,46-82s8-34-22-64s-46-32-80-18s-100-20-124,8s-137,72-180.5,106S-46-138-54-96
					S-168,20-182,81s-60,207-64,250s-16,115-12,173S-220,554-220,554z"/>
				<path class="st3" d="M-244,535c80-68,90-96,138-104s72-26,94-66s38-62,82-84s90-64,98-96s30-52,56-66S324,61,324,15
					s42-90,70-108s72-32,78-70s32-50,52-68s46-36,46-82s8-34-22-64s-46-32-80-18s-100-20-124,8s-137,72-180.5,106S-70-157-78-115
					S-192,1-206,62s-60,207-64,250s-16,115-12,173S-244,535-244,535z"/>
				<path class="st4" d="M-272,508c80-68,90-96,138-104s72-26,94-66s38-62,82-84s90-64,98-96s30-52,56-66S296,34,296-12
					s42-90,70-108s72-32,78-70s32-50,52-68s46-36,46-82s8-34-22-64s-46-32-80-18s-100-20-124,8s-137,72-180.5,106S-98-184-106-142
					S-220-26-234,35s-60,207-64,250s-16,115-12,173S-272,508-272,508z"/>
			</g>
			<g>
				<path class="st0" d="M-299,489c80-68,90-96,138-104s72-26,94-66s38-62,82-84s90-64,98-96s30-52,56-66S269,15,269-31
					s42-90,70-108s72-32,78-70s32-50,52-68s46-36,46-82s8-34-22-64s-46-32-80-18s-100-20-124,8s-137,72-180.5,106S-125-203-133-161
					S-247-45-261,16s-60,207-64,250s-16,115-12,173S-299,489-299,489z"/>
				<path class="st1" d="M-327,463c80-68,90-96,138-104s72-26,94-66s38-62,82-84s90-64,98-96s30-52,56-66S241-11,241-57
					s42-90,70-108s72-32,78-70s32-50,52-68s46-36,46-82s8-34-22-64s-46-32-80-18s-100-20-124,8S124-387,80.5-353S-153-229-161-187
					S-275-71-289-10s-60,207-64,250s-16,115-12,173S-327,463-327,463z"/>
				<path class="st2" d="M-355,443c80-68,90-96,138-104s72-26,94-66s38-62,82-84s90-64,98-96s30-52,56-66S213-31,213-77
					s42-90,70-108s72-32,78-70s32-50,52-68s46-36,46-82s8-34-22-64s-46-32-80-18s-100-20-124,8S96-407,52.5-373S-181-249-189-207
					S-303-91-317-30s-60,207-64,250s-16,115-12,173S-355,443-355,443z"/>
				<path class="st3" d="M-379,424c80-68,90-96,138-104s72-26,94-66s38-62,82-84s90-64,98-96S63,22,89,8S189-50,189-96s42-90,70-108
					s72-32,78-70s32-50,52-68s46-36,46-82s8-34-22-64s-46-32-80-18s-100-20-124,8S72-426,28.5-392S-205-268-213-226S-327-110-341-49
					s-60,207-64,250s-16,115-12,173S-379,424-379,424z"/>
				<path class="st4" d="M-407,397c80-68,90-96,138-104s72-26,94-66s38-62,82-84S-3,79,5,47S35-5,61-19s100-58,100-104s42-90,70-108
					s72-32,78-70s32-50,52-68s46-36,46-82s8-34-22-64s-46-32-80-18s-100-20-124,8S44-453,0.5-419S-233-295-241-253S-355-137-369-76
					s-60,207-64,250s-16,115-12,173S-407,397-407,397z"/>
			</g>
		</g>
	</g>
	<g>
		<g>
			<g>
				<path class="st0" d="M459,1484c80-68,90-96,138-104s72-26,94-66s38-62,82-84s90-64,98-96s30-52,56-66s100-58,100-104
					s42-90,70-108s72-32,78-70s32-50,52-68s46-36,46-82s8-34-22-64s-46-32-80-18s-100-20-124,8s-137,72-180.5,106S633,792,625,834
					s-114,116-128,177s-60,207-64,250s-16,115-12,173S459,1484,459,1484z"/>
				<path class="st1" d="M431,1458c80-68,90-96,138-104s72-26,94-66s38-62,82-84s90-64,98-96s30-52,56-66s100-58,100-104
					s42-90,70-108s72-32,78-70s32-50,52-68s46-36,46-82s8-34-22-64s-46-32-80-18s-100-20-124,8s-137,72-180.5,106S605,766,597,808
					S483,924,469,985s-60,207-64,250s-16,115-12,173S431,1458,431,1458z"/>
				<path class="st2" d="M403,1438c80-68,90-96,138-104s72-26,94-66s38-62,82-84s90-64,98-96s30-52,56-66s100-58,100-104
					s42-90,70-108s72-32,78-70s32-50,52-68s46-36,46-82s8-34-22-64s-46-32-80-18s-100-20-124,8s-137,72-180.5,106S577,746,569,788
					S455,904,441,965s-60,207-64,250s-16,115-12,173S403,1438,403,1438z"/>
				<path class="st3" d="M379,1419c80-68,90-96,138-104s72-26,94-66s38-62,82-84s90-64,98-96s30-52,56-66s100-58,100-104
					s42-90,70-108s72-32,78-70s32-50,52-68s46-36,46-82s8-34-22-64s-46-32-80-18s-100-20-124,8s-137,72-180.5,106S553,727,545,769
					S431,885,417,946s-60,207-64,250s-16,115-12,173S379,1419,379,1419z"/>
				<path class="st4" d="M351,1392c80-68,90-96,138-104s72-26,94-66s38-62,82-84s90-64,98-96s30-52,56-66s100-58,100-104
					s42-90,70-108s72-32,78-70s32-50,52-68s46-36,46-82s8-34-22-64s-46-32-80-18s-100-20-124,8s-137,72-180.5,106S525,700,517,742
					S403,858,389,919s-60,207-64,250s-16,115-12,173S351,1392,351,1392z"/>
			</g>
			<g>
				<path class="st0" d="M324,1373c80-68,90-96,138-104s72-26,94-66s38-62,82-84s90-64,98-96s30-52,56-66s100-58,100-104
					s42-90,70-108s72-32,78-70s32-50,52-68s46-36,46-82s8-34-22-64s-46-32-80-18s-100-20-124,8s-137,72-180.5,106S498,681,490,723
					S376,839,362,900s-60,207-64,250s-16,115-12,173S324,1373,324,1373z"/>
				<path class="st1" d="M296,1347c80-68,90-96,138-104s72-26,94-66s38-62,82-84s90-64,98-96s30-52,56-66s100-58,100-104
					s42-90,70-108s72-32,78-70s32-50,52-68s46-36,46-82s8-34-22-64s-46-32-80-18s-100-20-124,8s-137,72-180.5,106S470,655,462,697
					S348,813,334,874s-60,207-64,250s-16,115-12,173S296,1347,296,1347z"/>
				<path class="st2" d="M268,1327c80-68,90-96,138-104s72-26,94-66s38-62,82-84s90-64,98-96s30-52,56-66s100-58,100-104
					s42-90,70-108s72-32,78-70s32-50,52-68s46-36,46-82s8-34-22-64s-46-32-80-18s-100-20-124,8s-137,72-180.5,106S442,635,434,677
					S320,793,306,854s-60,207-64,250s-16,115-12,173S268,1327,268,1327z"/>
				<path class="st3" d="M244,1308c80-68,90-96,138-104s72-26,94-66s38-62,82-84s90-64,98-96s30-52,56-66s100-58,100-104
					s42-90,70-108s72-32,78-70s32-50,52-68s46-36,46-82s8-34-22-64s-46-32-80-18s-100-20-124,8s-137,72-180.5,106S418,616,410,658
					S296,774,282,835s-60,207-64,250s-16,115-12,173S244,1308,244,1308z"/>
				<path class="st4" d="M216,1281c80-68,90-96,138-104s72-26,94-66s38-62,82-84s90-64,98-96s30-52,56-66s100-58,100-104
					s42-90,70-108s72-32,78-70s32-50,52-68s46-36,46-82s8-34-22-64s-46-32-80-18s-100-20-124,8s-137,72-180.5,106S390,589,382,631
					S268,747,254,808s-60,207-64,250s-16,115-12,173S216,1281,216,1281z"/>
			</g>
		</g>
		<g>
			<g>
				<path class="st0" d="M187,1255c80-68,90-96,138-104s72-26,94-66s38-62,82-84s90-64,98-96s30-52,56-66s100-58,100-104
					s42-90,70-108s72-32,78-70s32-50,52-68s46-36,46-82s8-34-22-64s-46-32-80-18s-100-20-124,8s-137,72-180.5,106S361,563,353,605
					S239,721,225,782s-60,207-64,250s-16,115-12,173S187,1255,187,1255z"/>
				<path class="st1" d="M159,1229c80-68,90-96,138-104s72-26,94-66s38-62,82-84s90-64,98-96s30-52,56-66s100-58,100-104
					s42-90,70-108s72-32,78-70s32-50,52-68s46-36,46-82s8-34-22-64s-46-32-80-18s-100-20-124,8s-137,72-180.5,106S333,537,325,579
					S211,695,197,756s-60,207-64,250s-16,115-12,173S159,1229,159,1229z"/>
				<path class="st2" d="M131,1209c80-68,90-96,138-104s72-26,94-66s38-62,82-84s90-64,98-96s30-52,56-66s100-58,100-104
					s42-90,70-108s72-32,78-70s32-50,52-68s46-36,46-82s8-34-22-64s-46-32-80-18s-100-20-124,8s-137,72-180.5,106S305,517,297,559
					S183,675,169,736s-60,207-64,250s-16,115-12,173S131,1209,131,1209z"/>
				<path class="st3" d="M107,1190c80-68,90-96,138-104s72-26,94-66s38-62,82-84s90-64,98-96s30-52,56-66s100-58,100-104
					s42-90,70-108s72-32,78-70s32-50,52-68s46-36,46-82s8-34-22-64s-46-32-80-18s-100-20-124,8s-137,72-180.5,106S281,498,273,540
					S159,656,145,717S85,924,81,967s-16,115-12,173S107,1190,107,1190z"/>
				<path class="st4" d="M79,1163c80-68,90-96,138-104s72-26,94-66s38-62,82-84s90-64,98-96s30-52,56-66s100-58,100-104
					s42-90,70-108s72-32,78-70s32-50,52-68s46-36,46-82s8-34-22-64s-46-32-80-18s-100-20-124,8s-137,72-180.5,106S253,471,245,513
					S131,629,117,690S57,897,53,940s-16,115-12,173S79,1163,79,1163z"/>
			</g>
			<g>
				<path class="st0" d="M52,1144c80-68,90-96,138-104s72-26,94-66s38-62,82-84s90-64,98-96s30-52,56-66s100-58,100-104
					s42-90,70-108s72-32,78-70s32-50,52-68s46-36,46-82s8-34-22-64s-46-32-80-18s-100-20-124,8s-137,72-180.5,106S226,452,218,494
					S104,610,90,671S30,878,26,921s-16,115-12,173S52,1144,52,1144z"/>
				<path class="st1" d="M24,1118c80-68,90-96,138-104s72-26,94-66s38-62,82-84s90-64,98-96s30-52,56-66s100-58,100-104
					s42-90,70-108s72-32,78-70s32-50,52-68s46-36,46-82s8-34-22-64s-46-32-80-18s-100-20-124,8s-137,72-180.5,106S198,426,190,468
					S76,584,62,645S2,852-2,895s-16,115-12,173S24,1118,24,1118z"/>
				<path class="st2" d="M-4,1098c80-68,90-96,138-104s72-26,94-66s38-62,82-84s90-64,98-96s30-52,56-66s100-58,100-104
					s42-90,70-108s72-32,78-70s32-50,52-68s46-36,46-82s8-34-22-64s-46-32-80-18s-100-20-124,8s-137,72-180.5,106S170,406,162,448
					S48,564,34,625s-60,207-64,250s-16,115-12,173S-4,1098-4,1098z"/>
				<path class="st3" d="M-28,1079c80-68,90-96,138-104s72-26,94-66s38-62,82-84s90-64,98-96s30-52,56-66s100-58,100-104
					s42-90,70-108s72-32,78-70s32-50,52-68s46-36,46-82s8-34-22-64s-46-32-80-18s-100-20-124,8s-137,72-180.5,106S146,387,138,429
					S24,545,10,606s-60,207-64,250s-16,115-12,173S-28,1079-28,1079z"/>
				<path class="st4" d="M-56,1052c80-68,90-96,138-104s72-26,94-66s38-62,82-84s90-64,98-96s30-52,56-66s100-58,100-104
					s42-90,70-108s72-32,78-70s32-50,52-68s46-36,46-82s8-34-22-64s-46-32-80-18s-100-20-124,8s-137,72-180.5,106S118,360,110,402
					S-4,518-18,579s-60,207-64,250s-16,115-12,173S-56,1052-56,1052z"/>
			</g>
		</g>
		<g>
			<g>
				<path class="st0" d="M-89,1034c80-68,90-96,138-104s72-26,94-66s38-62,82-84s90-64,98-96s30-52,56-66s100-58,100-104
					s42-90,70-108s72-32,78-70s32-50,52-68s46-36,46-82s8-34-22-64s-46-32-80-18s-100-20-124,8s-137,72-180.5,106S85,342,77,384
					S-37,500-51,561s-60,207-64,250s-16,115-12,173S-89,1034-89,1034z"/>
				<path class="st1" d="M-117,1008c80-68,90-96,138-104s72-26,94-66s38-62,82-84s90-64,98-96s30-52,56-66s100-58,100-104
					s42-90,70-108s72-32,78-70s32-50,52-68s46-36,46-82s8-34-22-64s-46-32-80-18s-100-20-124,8s-137,72-180.5,106S57,316,49,358
					S-65,474-79,535s-60,207-64,250s-16,115-12,173S-117,1008-117,1008z"/>
				<path class="st2" d="M-145,988c80-68,90-96,138-104s72-26,94-66s38-62,82-84s90-64,98-96s30-52,56-66s100-58,100-104
					s42-90,70-108s72-32,78-70s32-50,52-68s46-36,46-82s8-34-22-64s-46-32-80-18s-100-20-124,8s-137,72-180.5,106S29,296,21,338
					S-93,454-107,515s-60,207-64,250s-16,115-12,173S-145,988-145,988z"/>
				<path class="st3" d="M-169,969c80-68,90-96,138-104s72-26,94-66s38-62,82-84s90-64,98-96s30-52,56-66s100-58,100-104
					s42-90,70-108s72-32,78-70s32-50,52-68s46-36,46-82s8-34-22-64s-46-32-80-18s-100-20-124,8s-137,72-180.5,106S5,277-3,319
					s-114,116-128,177s-60,207-64,250s-16,115-12,173S-169,969-169,969z"/>
				<path class="st4" d="M-197,942c80-68,90-96,138-104s72-26,94-66s38-62,82-84s90-64,98-96s30-52,56-66s100-58,100-104
					s42-90,70-108s72-32,78-70s32-50,52-68s46-36,46-82s8-34-22-64s-46-32-80-18S415-8,391,20S254,92,210.5,126S-23,250-31,292
					s-114,116-128,177s-60,207-64,250s-16,115-12,173S-197,942-197,942z"/>
			</g>
			<g>
				<path class="st0" d="M-224,923c80-68,90-96,138-104s72-26,94-66s38-62,82-84s90-64,98-96s30-52,56-66s100-58,100-104
					s42-90,70-108s72-32,78-70s32-50,52-68s46-36,46-82s8-34-22-64s-46-32-80-18S388-27,364,1S227,73,183.5,107S-50,231-58,273
					s-114,116-128,177s-60,207-64,250s-16,115-12,173S-224,923-224,923z"/>
				<path class="st1" d="M-252,897c80-68,90-96,138-104s72-26,94-66s38-62,82-84s90-64,98-96s30-52,56-66s100-58,100-104
					s42-90,70-108s72-32,78-70s32-50,52-68s46-36,46-82s8-34-22-64s-46-32-80-18s-100-20-124,8S199,47,155.5,81S-78,205-86,247
					s-114,116-128,177s-60,207-64,250s-16,115-12,173S-252,897-252,897z"/>
				<path class="st2" d="M-280,877c80-68,90-96,138-104s72-26,94-66s38-62,82-84s90-64,98-96s30-52,56-66s100-58,100-104
					s42-90,70-108s72-32,78-70s32-50,52-68s46-36,46-82s8-34-22-64s-46-32-80-18s-100-20-124,8S171,27,127.5,61S-106,185-114,227
					s-114,116-128,177s-60,207-64,250s-16,115-12,173S-280,877-280,877z"/>
				<path class="st3" d="M-304,858c80-68,90-96,138-104s72-26,94-66s38-62,82-84s90-64,98-96s30-52,56-66s100-58,100-104
					s42-90,70-108s72-32,78-70s32-50,52-68s46-36,46-82s8-34-22-64s-46-32-80-18s-100-20-124,8S147,8,103.5,42S-130,166-138,208
					s-114,116-128,177s-60,207-64,250s-16,115-12,173S-304,858-304,858z"/>
				<path class="st4" d="M-332,831c80-68,90-96,138-104s72-26,94-66s38-62,82-84s90-64,98-96s30-52,56-66s100-58,100-104
					s42-90,70-108s72-32,78-70s32-50,52-68s46-36,46-82s8-34-22-64s-46-32-80-18s-100-20-124,8S119-19,75.5,15S-158,139-166,181
					s-114,116-128,177s-60,207-64,250s-16,115-12,173S-332,831-332,831z"/>
			</g>
		</g>
		<g>
			<g>
				<path class="st0" d="M-358,805c80-68,90-96,138-104s72-26,94-66s38-62,82-84s90-64,98-96s30-52,56-66s100-58,100-104
					s42-90,70-108s72-32,78-70s32-50,52-68s46-36,46-82s8-34-22-64s-46-32-80-18s-100-20-124,8S93-45,49.5-11S-184,113-192,155
					s-114,116-128,177s-60,207-64,250s-16,115-12,173S-358,805-358,805z"/>
				<path class="st1" d="M-386,779c80-68,90-96,138-104s72-26,94-66s38-62,82-84s90-64,98-96s30-52,56-66s100-58,100-104
					s42-90,70-108s72-32,78-70s32-50,52-68s46-36,46-82s8-34-22-64s-46-32-80-18s-100-20-124,8S65-71,21.5-37S-212,87-220,129
					s-114,116-128,177s-60,207-64,250s-16,115-12,173S-386,779-386,779z"/>
				<path class="st2" d="M-414,759c80-68,90-96,138-104s72-26,94-66s38-62,82-84s90-64,98-96s30-52,56-66s100-58,100-104
					s42-90,70-108s72-32,78-70s32-50,52-68s46-36,46-82s8-34-22-64s-46-32-80-18s-100-20-124,8S37-91-6.5-57S-240,67-248,109
					s-114,116-128,177s-60,207-64,250s-16,115-12,173S-414,759-414,759z"/>
				<path class="st3" d="M-438,740c80-68,90-96,138-104s72-26,94-66s38-62,82-84s90-64,98-96s30-52,56-66s100-58,100-104
					s42-90,70-108s72-32,78-70s32-50,52-68s46-36,46-82s8-34-22-64s-46-32-80-18s-100-20-124,8S13-110-30.5-76S-264,48-272,90
					s-114,116-128,177s-60,207-64,250s-16,115-12,173S-438,740-438,740z"/>
				<path class="st4" d="M-466,713c80-68,90-96,138-104s72-26,94-66s38-62,82-84s90-64,98-96s30-52,56-66s100-58,100-104
					s42-90,70-108s72-32,78-70s32-50,52-68s46-36,46-82s8-34-22-64s-46-32-80-18s-100-20-124,8S-15-137-58.5-103S-292,21-300,63
					s-114,116-128,177s-60,207-64,250s-16,115-12,173S-466,713-466,713z"/>
			</g>
			<g>
				<path class="st0" d="M-493,694c80-68,90-96,138-104s72-26,94-66s38-62,82-84s90-64,98-96s30-52,56-66S75,220,75,174
					s42-90,70-108s72-32,78-70s32-50,52-68s46-36,46-82s8-34-22-64s-46-32-80-18s-100-20-124,8S-42-156-85.5-122S-319,2-327,44
					s-114,116-128,177s-60,207-64,250s-16,115-12,173S-493,694-493,694z"/>
				<path class="st1" d="M-521,668c80-68,90-96,138-104s72-26,94-66s38-62,82-84s90-64,98-96s30-52,56-66S47,194,47,148
					s42-90,70-108s72-32,78-70s32-50,52-68s46-36,46-82s8-34-22-64s-46-32-80-18s-100-20-124,8s-137,72-180.5,106S-347-24-355,18
					s-114,116-128,177s-60,207-64,250s-16,115-12,173S-521,668-521,668z"/>
				<path class="st2" d="M-549,648c80-68,90-96,138-104s72-26,94-66s38-62,82-84s90-64,98-96s30-52,56-66S19,174,19,128S61,38,89,20
					s72-32,78-70s32-50,52-68s46-36,46-82s8-34-22-64s-46-32-80-18s-100-20-124,8s-137,72-180.5,106S-375-44-383-2s-114,116-128,177
					s-60,207-64,250s-16,115-12,173S-549,648-549,648z"/>
				<path class="st3" d="M-573,629c80-68,90-96,138-104s72-26,94-66s38-62,82-84s90-64,98-96s30-52,56-66S-5,155-5,109S37,19,65,1
					s72-32,78-70s32-50,52-68s46-36,46-82s8-34-22-64s-46-32-80-18s-100-20-124,8s-137,72-180.5,106S-399-63-407-21S-521,95-535,156
					s-60,207-64,250s-16,115-12,173S-573,629-573,629z"/>
				<path class="st4" d="M-601,602c80-68,90-96,138-104s72-26,94-66s38-62,82-84s90-64,98-96s30-52,56-66S-33,128-33,82S9-8,37-26
					s72-32,78-70s32-50,52-68s46-36,46-82s8-34-22-64s-46-32-80-18s-100-20-124,8s-137,72-180.5,106S-427-90-435-48S-549,68-563,129
					s-60,207-64,250s-16,115-12,173S-601,602-601,602z"/>
			</g>
		</g>
	</g>
	<g>
		<g>
			<g>
				<path class="st0" d="M102,1573c80-68,90-96,138-104s72-26,94-66s38-62,82-84s90-64,98-96s30-52,56-66s100-58,100-104
					s42-90,70-108s72-32,78-70s32-50,52-68s46-36,46-82s8-34-22-64s-46-32-80-18s-100-20-124,8s-137,72-180.5,106S276,881,268,923
					s-114,116-128,177s-60,207-64,250s-16,115-12,173S102,1573,102,1573z"/>
				<path class="st1" d="M74,1547c80-68,90-96,138-104s72-26,94-66s38-62,82-84s90-64,98-96s30-52,56-66s100-58,100-104
					s42-90,70-108s72-32,78-70s32-50,52-68s46-36,46-82s8-34-22-64s-46-32-80-18s-100-20-124,8s-137,72-180.5,106S248,855,240,897
					s-114,116-128,177s-60,207-64,250s-16,115-12,173S74,1547,74,1547z"/>
				<path class="st2" d="M46,1527c80-68,90-96,138-104s72-26,94-66s38-62,82-84s90-64,98-96s30-52,56-66s100-58,100-104
					s42-90,70-108s72-32,78-70s32-50,52-68s46-36,46-82s8-34-22-64s-46-32-80-18s-100-20-124,8s-137,72-180.5,106S220,835,212,877
					S98,993,84,1054s-60,207-64,250S4,1419,8,1477S46,1527,46,1527z"/>
				<path class="st3" d="M22,1508c80-68,90-96,138-104s72-26,94-66s38-62,82-84s90-64,98-96s30-52,56-66s100-58,100-104
					s42-90,70-108s72-32,78-70s32-50,52-68s46-36,46-82s8-34-22-64s-46-32-80-18s-100-20-124,8s-137,72-180.5,106S196,816,188,858
					S74,974,60,1035S0,1242-4,1285s-16,115-12,173S22,1508,22,1508z"/>
				<path class="st4" d="M-6,1481c80-68,90-96,138-104s72-26,94-66s38-62,82-84s90-64,98-96s30-52,56-66s100-58,100-104
					s42-90,70-108s72-32,78-70s32-50,52-68s46-36,46-82s8-34-22-64s-46-32-80-18s-100-20-124,8s-137,72-180.5,106S168,789,160,831
					S46,947,32,1008s-60,207-64,250s-16,115-12,173S-6,1481-6,1481z"/>
			</g>
			<g>
				<path class="st0" d="M-33,1462c80-68,90-96,138-104s72-26,94-66s38-62,82-84s90-64,98-96s30-52,56-66s100-58,100-104
					s42-90,70-108s72-32,78-70s32-50,52-68s46-36,46-82s8-34-22-64s-46-32-80-18s-100-20-124,8s-137,72-180.5,106S141,770,133,812
					S19,928,5,989s-60,207-64,250s-16,115-12,173S-33,1462-33,1462z"/>
				<path class="st1" d="M-61,1436c80-68,90-96,138-104s72-26,94-66s38-62,82-84s90-64,98-96s30-52,56-66s100-58,100-104
					s42-90,70-108s72-32,78-70s32-50,52-68s46-36,46-82s8-34-22-64s-46-32-80-18s-100-20-124,8s-137,72-180.5,106S113,744,105,786
					S-9,902-23,963s-60,207-64,250s-16,115-12,173S-61,1436-61,1436z"/>
				<path class="st2" d="M-89,1416c80-68,90-96,138-104s72-26,94-66s38-62,82-84s90-64,98-96s30-52,56-66s100-58,100-104
					s42-90,70-108s72-32,78-70s32-50,52-68s46-36,46-82s8-34-22-64s-46-32-80-18s-100-20-124,8s-137,72-180.5,106S85,724,77,766
					S-37,882-51,943s-60,207-64,250s-16,115-12,173S-89,1416-89,1416z"/>
				<path class="st3" d="M-113,1397c80-68,90-96,138-104s72-26,94-66s38-62,82-84s90-64,98-96s30-52,56-66s100-58,100-104
					s42-90,70-108s72-32,78-70s32-50,52-68s46-36,46-82s8-34-22-64s-46-32-80-18s-100-20-124,8s-137,72-180.5,106S61,705,53,747
					S-61,863-75,924s-60,207-64,250s-16,115-12,173S-113,1397-113,1397z"/>
				<path class="st4" d="M-141,1370c80-68,90-96,138-104s72-26,94-66s38-62,82-84s90-64,98-96s30-52,56-66s100-58,100-104
					s42-90,70-108s72-32,78-70s32-50,52-68s46-36,46-82s8-34-22-64s-46-32-80-18s-100-20-124,8s-137,72-180.5,106S33,678,25,720
					S-89,836-103,897s-60,207-64,250s-16,115-12,173S-141,1370-141,1370z"/>
			</g>
		</g>
		<g>
			<g>
				<path class="st0" d="M-170,1344c80-68,90-96,138-104s72-26,94-66s38-62,82-84s90-64,98-96s30-52,56-66s100-58,100-104
					s42-90,70-108s72-32,78-70s32-50,52-68s46-36,46-82s8-34-22-64s-46-32-80-18s-100-20-124,8s-137,72-180.5,106S4,652-4,694
					s-114,116-128,177s-60,207-64,250s-16,115-12,173S-170,1344-170,1344z"/>
				<path class="st1" d="M-198,1318c80-68,90-96,138-104s72-26,94-66s38-62,82-84s90-64,98-96s30-52,56-66s100-58,100-104
					s42-90,70-108s72-32,78-70s32-50,52-68s46-36,46-82s8-34-22-64s-46-32-80-18s-100-20-124,8s-137,72-180.5,106S-24,626-32,668
					s-114,116-128,177s-60,207-64,250s-16,115-12,173S-198,1318-198,1318z"/>
				<path class="st2" d="M-226,1298c80-68,90-96,138-104s72-26,94-66s38-62,82-84s90-64,98-96s30-52,56-66s100-58,100-104
					s42-90,70-108s72-32,78-70s32-50,52-68s46-36,46-82s8-34-22-64s-46-32-80-18s-100-20-124,8s-137,72-180.5,106S-52,606-60,648
					s-114,116-128,177s-60,207-64,250s-16,115-12,173S-226,1298-226,1298z"/>
				<path class="st3" d="M-250,1279c80-68,90-96,138-104s72-26,94-66s38-62,82-84s90-64,98-96s30-52,56-66s100-58,100-104
					s42-90,70-108s72-32,78-70s32-50,52-68s46-36,46-82s8-34-22-64s-46-32-80-18s-100-20-124,8s-137,72-180.5,106S-76,587-84,629
					s-114,116-128,177s-60,207-64,250s-16,115-12,173S-250,1279-250,1279z"/>
				<path class="st4" d="M-278,1252c80-68,90-96,138-104s72-26,94-66s38-62,82-84s90-64,98-96s30-52,56-66s100-58,100-104
					s42-90,70-108s72-32,78-70s32-50,52-68s46-36,46-82s8-34-22-64s-46-32-80-18s-100-20-124,8s-137,72-180.5,106S-104,560-112,602
					s-114,116-128,177s-60,207-64,250s-16,115-12,173S-278,1252-278,1252z"/>
			</g>
			<g>
				<path class="st0" d="M-305,1233c80-68,90-96,138-104s72-26,94-66s38-62,82-84s90-64,98-96s30-52,56-66s100-58,100-104
					s42-90,70-108s72-32,78-70s32-50,52-68s46-36,46-82s8-34-22-64s-46-32-80-18s-100-20-124,8s-137,72-180.5,106S-131,541-139,583
					s-114,116-128,177s-60,207-64,250s-16,115-12,173S-305,1233-305,1233z"/>
				<path class="st1" d="M-333,1207c80-68,90-96,138-104s72-26,94-66s38-62,82-84s90-64,98-96s30-52,56-66s100-58,100-104
					s42-90,70-108s72-32,78-70s32-50,52-68s46-36,46-82s8-34-22-64s-46-32-80-18s-100-20-124,8S118,357,74.5,391S-159,515-167,557
					s-114,116-128,177s-60,207-64,250s-16,115-12,173S-333,1207-333,1207z"/>
				<path class="st2" d="M-361,1187c80-68,90-96,138-104s72-26,94-66s38-62,82-84s90-64,98-96s30-52,56-66s100-58,100-104
					s42-90,70-108s72-32,78-70s32-50,52-68s46-36,46-82s8-34-22-64s-46-32-80-18s-100-20-124,8S90,337,46.5,371S-187,495-195,537
					s-114,116-128,177s-60,207-64,250s-16,115-12,173S-361,1187-361,1187z"/>
				<path class="st3" d="M-385,1168c80-68,90-96,138-104s72-26,94-66s38-62,82-84s90-64,98-96s30-52,56-66s100-58,100-104
					s42-90,70-108s72-32,78-70s32-50,52-68s46-36,46-82s8-34-22-64s-46-32-80-18s-100-20-124,8S66,318,22.5,352S-211,476-219,518
					s-114,116-128,177s-60,207-64,250s-16,115-12,173S-385,1168-385,1168z"/>
				<path class="st4" d="M-413,1141c80-68,90-96,138-104s72-26,94-66s38-62,82-84s90-64,98-96s30-52,56-66s100-58,100-104
					s42-90,70-108s72-32,78-70s32-50,52-68s46-36,46-82s8-34-22-64s-46-32-80-18s-100-20-124,8S38,291-5.5,325S-239,449-247,491
					s-114,116-128,177s-60,207-64,250s-16,115-12,173S-413,1141-413,1141z"/>
			</g>
		</g>
		<g>
			<g>
				<path class="st0" d="M-446,1123c80-68,90-96,138-104s72-26,94-66s38-62,82-84s90-64,98-96s30-52,56-66s100-58,100-104
					s42-90,70-108s72-32,78-70s32-50,52-68s46-36,46-82s8-34-22-64s-46-32-80-18s-100-20-124,8S5,273-38.5,307S-272,431-280,473
					s-114,116-128,177s-60,207-64,250s-16,115-12,173S-446,1123-446,1123z"/>
				<path class="st1" d="M-474,1097c80-68,90-96,138-104s72-26,94-66s38-62,82-84s90-64,98-96s30-52,56-66S94,623,94,577
					s42-90,70-108s72-32,78-70s32-50,52-68s46-36,46-82s8-34-22-64s-46-32-80-18s-100-20-124,8S-23,247-66.5,281S-300,405-308,447
					s-114,116-128,177s-60,207-64,250s-16,115-12,173S-474,1097-474,1097z"/>
				<path class="st2" d="M-502,1077c80-68,90-96,138-104s72-26,94-66s38-62,82-84s90-64,98-96s30-52,56-66S66,603,66,557
					s42-90,70-108s72-32,78-70s32-50,52-68s46-36,46-82s8-34-22-64s-46-32-80-18s-100-20-124,8S-51,227-94.5,261S-328,385-336,427
					s-114,116-128,177s-60,207-64,250s-16,115-12,173S-502,1077-502,1077z"/>
				<path class="st3" d="M-526,1058c80-68,90-96,138-104s72-26,94-66s38-62,82-84s90-64,98-96s30-52,56-66S42,584,42,538
					s42-90,70-108s72-32,78-70s32-50,52-68s46-36,46-82s8-34-22-64s-46-32-80-18s-100-20-124,8s-137,72-180.5,106S-352,366-360,408
					s-114,116-128,177s-60,207-64,250s-16,115-12,173S-526,1058-526,1058z"/>
				<path class="st4" d="M-554,1031c80-68,90-96,138-104s72-26,94-66s38-62,82-84s90-64,98-96s30-52,56-66S14,557,14,511
					s42-90,70-108s72-32,78-70s32-50,52-68s46-36,46-82s8-34-22-64s-46-32-80-18S58,81,34,109s-137,72-180.5,106S-380,339-388,381
					s-114,116-128,177s-60,207-64,250s-16,115-12,173S-554,1031-554,1031z"/>
			</g>
			<g>
				<path class="st0" d="M-581,1012c80-68,90-96,138-104s72-26,94-66s38-62,82-84s90-64,98-96s30-52,56-66s100-58,100-104
					s42-90,70-108s72-32,78-70s32-50,52-68s46-36,46-82s8-34-22-64s-46-32-80-18S31,62,7,90s-137,72-180.5,106S-407,320-415,362
					s-114,116-128,177s-60,207-64,250s-16,115-12,173S-581,1012-581,1012z"/>
				<path class="st1" d="M-609,986c80-68,90-96,138-104s72-26,94-66s38-62,82-84s90-64,98-96s30-52,56-66s100-58,100-104
					s42-90,70-108s72-32,78-70s32-50,52-68s46-36,46-82s8-34-22-64s-46-32-80-18S3,36-21,64s-137,72-180.5,106S-435,294-443,336
					s-114,116-128,177s-60,207-64,250s-16,115-12,173S-609,986-609,986z"/>
				<path class="st2" d="M-637,966c80-68,90-96,138-104s72-26,94-66s38-62,82-84s90-64,98-96s30-52,56-66s100-58,100-104
					s42-90,70-108s72-32,78-70s32-50,52-68s46-36,46-82s8-34-22-64s-46-32-80-18S-25,16-49,44s-137,72-180.5,106S-463,274-471,316
					s-114,116-128,177s-60,207-64,250s-16,115-12,173S-637,966-637,966z"/>
				<path class="st3" d="M-661,947c80-68,90-96,138-104s72-26,94-66s38-62,82-84s90-64,98-96s30-52,56-66s100-58,100-104
					s42-90,70-108s72-32,78-70s32-50,52-68s46-36,46-82s8-34-22-64S85,3,51,17S-49-3-73,25s-137,72-180.5,106S-487,255-495,297
					s-114,116-128,177s-60,207-64,250s-16,115-12,173S-661,947-661,947z"/>
				<path class="st4" d="M-689,920c80-68,90-96,138-104s72-26,94-66s38-62,82-84s90-64,98-96s30-52,56-66s100-58,100-104
					s42-90,70-108s72-32,78-70s32-50,52-68s46-36,46-82s8-34-22-64S57-24,23-10S-77-30-101-2s-137,72-180.5,106S-515,228-523,270
					s-114,116-128,177s-60,207-64,250s-16,115-12,173S-689,920-689,920z"/>
			</g>
		</g>
		<g>
			<g>
				<path class="st0" d="M-715,894c80-68,90-96,138-104s72-26,94-66s38-62,82-84s90-64,98-96s30-52,56-66s100-58,100-104
					s42-90,70-108s72-32,78-70s32-50,52-68s46-36,46-82s8-34-22-64S31-50-3-36s-100-20-124,8S-264,44-307.5,78S-541,202-549,244
					s-114,116-128,177s-60,207-64,250s-16,115-12,173S-715,894-715,894z"/>
				<path class="st1" d="M-743,868c80-68,90-96,138-104s72-26,94-66s38-62,82-84s90-64,98-96s30-52,56-66s100-58,100-104
					s42-90,70-108s72-32,78-70s32-50,52-68s46-36,46-82s8-34-22-64S3-76-31-62s-100-20-124,8S-292,18-335.5,52S-569,176-577,218
					s-114,116-128,177s-60,207-64,250s-16,115-12,173S-743,868-743,868z"/>
				<path class="st2" d="M-771,848c80-68,90-96,138-104s72-26,94-66s38-62,82-84s90-64,98-96s30-52,56-66s100-58,100-104
					s42-90,70-108s72-32,78-70s32-50,52-68S43,46,43,0s8-34-22-64s-46-32-80-18s-100-20-124,8S-320-2-363.5,32S-597,156-605,198
					s-114,116-128,177s-60,207-64,250s-16,115-12,173S-771,848-771,848z"/>
				<path class="st3" d="M-795,829c80-68,90-96,138-104s72-26,94-66s38-62,82-84s90-64,98-96s30-52,56-66s100-58,100-104
					s42-90,70-108s72-32,78-70s32-50,52-68s46-36,46-82s8-34-22-64s-46-32-80-18s-100-20-124,8S-344-21-387.5,13S-621,137-629,179
					s-114,116-128,177s-60,207-64,250s-16,115-12,173S-795,829-795,829z"/>
				<path class="st4" d="M-823,802c80-68,90-96,138-104s72-26,94-66s38-62,82-84s90-64,98-96s30-52,56-66s100-58,100-104
					s42-90,70-108s72-32,78-70s32-50,52-68S-9,0-9-46s8-34-22-64s-46-32-80-18s-100-20-124,8S-372-48-415.5-14S-649,110-657,152
					s-114,116-128,177s-60,207-64,250s-16,115-12,173S-823,802-823,802z"/>
			</g>
			<g>
				<path class="st0" d="M-850,783c80-68,90-96,138-104s72-26,94-66s38-62,82-84s90-64,98-96s30-52,56-66s100-58,100-104
					s42-90,70-108s72-32,78-70s32-50,52-68s46-36,46-82s8-34-22-64s-46-32-80-18s-100-20-124,8S-399-67-442.5-33S-676,91-684,133
					s-114,116-128,177s-60,207-64,250s-16,115-12,173S-850,783-850,783z"/>
				<path class="st1" d="M-878,757c80-68,90-96,138-104s72-26,94-66s38-62,82-84s90-64,98-96s30-52,56-66s100-58,100-104
					s42-90,70-108s72-32,78-70s32-50,52-68s46-36,46-82s8-34-22-64s-46-32-80-18s-100-20-124,8S-427-93-470.5-59S-704,65-712,107
					s-114,116-128,177s-60,207-64,250s-16,115-12,173S-878,757-878,757z"/>
				<path class="st2" d="M-906,737c80-68,90-96,138-104s72-26,94-66s38-62,82-84s90-64,98-96s30-52,56-66s100-58,100-104
					s42-90,70-108s72-32,78-70s32-50,52-68s46-36,46-82s8-34-22-64s-46-32-80-18s-100-20-124,8s-137,72-180.5,106S-732,45-740,87
					s-114,116-128,177s-60,207-64,250s-16,115-12,173S-906,737-906,737z"/>
				<path class="st3" d="M-930,718c80-68,90-96,138-104s72-26,94-66s38-62,82-84s90-64,98-96s30-52,56-66s100-58,100-104
					s42-90,70-108s72-32,78-70s32-50,52-68s46-36,46-82s8-34-22-64s-46-32-80-18s-100-20-124,8s-137,72-180.5,106S-756,26-764,68
					s-114,116-128,177s-60,207-64,250s-16,115-12,173S-930,718-930,718z"/>
				<path class="st4" d="M-958,691c80-68,90-96,138-104s72-26,94-66s38-62,82-84s90-64,98-96s30-52,56-66s100-58,100-104
					s42-90,70-108s72-32,78-70s32-50,52-68s46-36,46-82s8-34-22-64s-46-32-80-18s-100-20-124,8s-137,72-180.5,106S-784-1-792,41
					s-114,116-128,177s-60,207-64,250s-16,115-12,173S-958,691-958,691z"/>
			</g>
		</g>
	</g>
	<g>
		<g>
			<g>
				<path class="st0" d="M-99,1768c80-68,90-96,138-104s72-26,94-66s38-62,82-84s90-64,98-96s30-52,56-66s100-58,100-104
					s42-90,70-108s72-32,78-70s32-50,52-68s46-36,46-82s8-34-22-64s-46-32-80-18s-100-20-124,8s-137,72-180.5,106S75,1076,67,1118
					s-114,116-128,177s-60,207-64,250s-16,115-12,173S-99,1768-99,1768z"/>
				<path class="st1" d="M-127,1742c80-68,90-96,138-104s72-26,94-66s38-62,82-84s90-64,98-96s30-52,56-66s100-58,100-104
					s42-90,70-108s72-32,78-70s32-50,52-68s46-36,46-82s8-34-22-64s-46-32-80-18s-100-20-124,8s-137,72-180.5,106S47,1050,39,1092
					s-114,116-128,177s-60,207-64,250s-16,115-12,173S-127,1742-127,1742z"/>
				<path class="st2" d="M-155,1722c80-68,90-96,138-104s72-26,94-66s38-62,82-84s90-64,98-96s30-52,56-66s100-58,100-104
					s42-90,70-108s72-32,78-70s32-50,52-68s46-36,46-82s8-34-22-64s-46-32-80-18s-100-20-124,8s-137,72-180.5,106S19,1030,11,1072
					s-114,116-128,177s-60,207-64,250s-16,115-12,173S-155,1722-155,1722z"/>
				<path class="st3" d="M-179,1703c80-68,90-96,138-104s72-26,94-66s38-62,82-84s90-64,98-96s30-52,56-66s100-58,100-104
					s42-90,70-108s72-32,78-70s32-50,52-68s46-36,46-82s8-34-22-64s-46-32-80-18s-100-20-124,8s-137,72-180.5,106S-5,1011-13,1053
					s-114,116-128,177s-60,207-64,250s-16,115-12,173S-179,1703-179,1703z"/>
				<path class="st4" d="M-207,1676c80-68,90-96,138-104s72-26,94-66s38-62,82-84s90-64,98-96s30-52,56-66s100-58,100-104
					s42-90,70-108s72-32,78-70s32-50,52-68s46-36,46-82s8-34-22-64s-46-32-80-18s-100-20-124,8s-137,72-180.5,106S-33,984-41,1026
					s-114,116-128,177s-60,207-64,250s-16,115-12,173S-207,1676-207,1676z"/>
			</g>
			<g>
				<path class="st0" d="M-234,1657c80-68,90-96,138-104s72-26,94-66s38-62,82-84s90-64,98-96s30-52,56-66s100-58,100-104
					s42-90,70-108s72-32,78-70s32-50,52-68s46-36,46-82s8-34-22-64s-46-32-80-18s-100-20-124,8s-137,72-180.5,106S-60,965-68,1007
					s-114,116-128,177s-60,207-64,250s-16,115-12,173S-234,1657-234,1657z"/>
				<path class="st1" d="M-262,1631c80-68,90-96,138-104s72-26,94-66s38-62,82-84s90-64,98-96s30-52,56-66s100-58,100-104
					s42-90,70-108s72-32,78-70s32-50,52-68s46-36,46-82s8-34-22-64s-46-32-80-18s-100-20-124,8s-137,72-180.5,106S-88,939-96,981
					s-114,116-128,177s-60,207-64,250s-16,115-12,173S-262,1631-262,1631z"/>
				<path class="st2" d="M-290,1611c80-68,90-96,138-104s72-26,94-66s38-62,82-84s90-64,98-96s30-52,56-66s100-58,100-104
					s42-90,70-108s72-32,78-70s32-50,52-68s46-36,46-82s8-34-22-64s-46-32-80-18s-100-20-124,8s-137,72-180.5,106S-116,919-124,961
					s-114,116-128,177s-60,207-64,250s-16,115-12,173S-290,1611-290,1611z"/>
				<path class="st3" d="M-314,1592c80-68,90-96,138-104s72-26,94-66s38-62,82-84s90-64,98-96s30-52,56-66s100-58,100-104
					s42-90,70-108s72-32,78-70s32-50,52-68s46-36,46-82s8-34-22-64s-46-32-80-18s-100-20-124,8S137,742,93.5,776S-140,900-148,942
					s-114,116-128,177s-60,207-64,250s-16,115-12,173S-314,1592-314,1592z"/>
				<path class="st4" d="M-342,1565c80-68,90-96,138-104s72-26,94-66s38-62,82-84s90-64,98-96s30-52,56-66s100-58,100-104
					s42-90,70-108s72-32,78-70s32-50,52-68s46-36,46-82s8-34-22-64s-46-32-80-18s-100-20-124,8S109,715,65.5,749S-168,873-176,915
					s-114,116-128,177s-60,207-64,250s-16,115-12,173S-342,1565-342,1565z"/>
			</g>
		</g>
		<g>
			<g>
				<path class="st0" d="M-371,1539c80-68,90-96,138-104s72-26,94-66s38-62,82-84s90-64,98-96s30-52,56-66s100-58,100-104
					s42-90,70-108s72-32,78-70s32-50,52-68s46-36,46-82s8-34-22-64s-46-32-80-18s-100-20-124,8S80,689,36.5,723S-197,847-205,889
					s-114,116-128,177s-60,207-64,250s-16,115-12,173S-371,1539-371,1539z"/>
				<path class="st1" d="M-399,1513c80-68,90-96,138-104s72-26,94-66s38-62,82-84s90-64,98-96s30-52,56-66s100-58,100-104
					s42-90,70-108s72-32,78-70s32-50,52-68s46-36,46-82s8-34-22-64s-46-32-80-18s-100-20-124,8S52,663,8.5,697S-225,821-233,863
					s-114,116-128,177s-60,207-64,250s-16,115-12,173S-399,1513-399,1513z"/>
				<path class="st2" d="M-427,1493c80-68,90-96,138-104s72-26,94-66s38-62,82-84s90-64,98-96s30-52,56-66s100-58,100-104
					s42-90,70-108s72-32,78-70s32-50,52-68s46-36,46-82s8-34-22-64s-46-32-80-18s-100-20-124,8S24,643-19.5,677S-253,801-261,843
					s-114,116-128,177s-60,207-64,250s-16,115-12,173S-427,1493-427,1493z"/>
				<path class="st3" d="M-451,1474c80-68,90-96,138-104s72-26,94-66s38-62,82-84s90-64,98-96s30-52,56-66s100-58,100-104
					s42-90,70-108s72-32,78-70s32-50,52-68s46-36,46-82s8-34-22-64s-46-32-80-18s-100-20-124,8S0,624-43.5,658S-277,782-285,824
					s-114,116-128,177s-60,207-64,250s-16,115-12,173S-451,1474-451,1474z"/>
				<path class="st4" d="M-479,1447c80-68,90-96,138-104s72-26,94-66s38-62,82-84s90-64,98-96s30-52,56-66S89,973,89,927
					s42-90,70-108s72-32,78-70s32-50,52-68s46-36,46-82s8-34-22-64s-46-32-80-18s-100-20-124,8S-28,597-71.5,631S-305,755-313,797
					s-114,116-128,177s-60,207-64,250s-16,115-12,173S-479,1447-479,1447z"/>
			</g>
			<g>
				<path class="st0" d="M-506,1428c80-68,90-96,138-104s72-26,94-66s38-62,82-84s90-64,98-96s30-52,56-66S62,954,62,908
					s42-90,70-108s72-32,78-70s32-50,52-68s46-36,46-82s8-34-22-64s-46-32-80-18s-100-20-124,8S-55,578-98.5,612S-332,736-340,778
					s-114,116-128,177s-60,207-64,250s-16,115-12,173S-506,1428-506,1428z"/>
				<path class="st1" d="M-534,1402c80-68,90-96,138-104s72-26,94-66s38-62,82-84s90-64,98-96s30-52,56-66S34,928,34,882
					s42-90,70-108s72-32,78-70s32-50,52-68s46-36,46-82s8-34-22-64s-46-32-80-18s-100-20-124,8s-137,72-180.5,106S-360,710-368,752
					s-114,116-128,177s-60,207-64,250s-16,115-12,173S-534,1402-534,1402z"/>
				<path class="st2" d="M-562,1382c80-68,90-96,138-104s72-26,94-66s38-62,82-84s90-64,98-96s30-52,56-66S6,908,6,862s42-90,70-108
					s72-32,78-70s32-50,52-68s46-36,46-82s8-34-22-64s-46-32-80-18s-100-20-124,8s-137,72-180.5,106S-388,690-396,732
					s-114,116-128,177s-60,207-64,250s-16,115-12,173S-562,1382-562,1382z"/>
				<path class="st3" d="M-586,1363c80-68,90-96,138-104s72-26,94-66s38-62,82-84s90-64,98-96s30-52,56-66s100-58,100-104
					s42-90,70-108s72-32,78-70s32-50,52-68s46-36,46-82s8-34-22-64s-46-32-80-18S26,413,2,441s-137,72-180.5,106S-412,671-420,713
					s-114,116-128,177s-60,207-64,250s-16,115-12,173S-586,1363-586,1363z"/>
				<path class="st4" d="M-614,1336c80-68,90-96,138-104s72-26,94-66s38-62,82-84s90-64,98-96s30-52,56-66s100-58,100-104
					s42-90,70-108s72-32,78-70s32-50,52-68s46-36,46-82s8-34-22-64s-46-32-80-18s-100-20-124,8s-137,72-180.5,106S-440,644-448,686
					s-114,116-128,177s-60,207-64,250s-16,115-12,173S-614,1336-614,1336z"/>
			</g>
		</g>
		<g>
			<g>
				<path class="st0" d="M-647,1318c80-68,90-96,138-104s72-26,94-66s38-62,82-84s90-64,98-96s30-52,56-66s100-58,100-104
					s42-90,70-108s72-32,78-70s32-50,52-68s46-36,46-82s8-34-22-64s-46-32-80-18s-100-20-124,8s-137,72-180.5,106S-473,626-481,668
					s-114,116-128,177s-60,207-64,250s-16,115-12,173S-647,1318-647,1318z"/>
				<path class="st1" d="M-675,1292c80-68,90-96,138-104s72-26,94-66s38-62,82-84s90-64,98-96s30-52,56-66s100-58,100-104
					s42-90,70-108s72-32,78-70s32-50,52-68s46-36,46-82s8-34-22-64s-46-32-80-18s-100-20-124,8s-137,72-180.5,106S-501,600-509,642
					s-114,116-128,177s-60,207-64,250s-16,115-12,173S-675,1292-675,1292z"/>
				<path class="st2" d="M-703,1272c80-68,90-96,138-104s72-26,94-66s38-62,82-84s90-64,98-96s30-52,56-66s100-58,100-104
					s42-90,70-108s72-32,78-70s32-50,52-68s46-36,46-82s8-34-22-64s-46-32-80-18s-100-20-124,8s-137,72-180.5,106S-529,580-537,622
					s-114,116-128,177s-60,207-64,250s-16,115-12,173S-703,1272-703,1272z"/>
				<path class="st3" d="M-727,1253c80-68,90-96,138-104s72-26,94-66s38-62,82-84s90-64,98-96s30-52,56-66s100-58,100-104
					s42-90,70-108s72-32,78-70s32-50,52-68s46-36,46-82s8-34-22-64s-46-32-80-18s-100-20-124,8s-137,72-180.5,106S-553,561-561,603
					s-114,116-128,177s-60,207-64,250s-16,115-12,173S-727,1253-727,1253z"/>
				<path class="st4" d="M-755,1226c80-68,90-96,138-104s72-26,94-66s38-62,82-84s90-64,98-96s30-52,56-66s100-58,100-104
					s42-90,70-108s72-32,78-70s32-50,52-68s46-36,46-82s8-34-22-64s-46-32-80-18s-100-20-124,8s-137,72-180.5,106S-581,534-589,576
					s-114,116-128,177s-60,207-64,250s-16,115-12,173S-755,1226-755,1226z"/>
			</g>
			<g>
				<path class="st0" d="M-782,1207c80-68,90-96,138-104s72-26,94-66s38-62,82-84s90-64,98-96s30-52,56-66s100-58,100-104
					s42-90,70-108s72-32,78-70s32-50,52-68s46-36,46-82s8-34-22-64s-46-32-80-18s-100-20-124,8s-137,72-180.5,106S-608,515-616,557
					s-114,116-128,177s-60,207-64,250s-16,115-12,173S-782,1207-782,1207z"/>
				<path class="st1" d="M-810,1181c80-68,90-96,138-104s72-26,94-66s38-62,82-84s90-64,98-96s30-52,56-66s100-58,100-104
					s42-90,70-108s72-32,78-70s32-50,52-68s46-36,46-82s8-34-22-64s-46-32-80-18s-100-20-124,8s-137,72-180.5,106S-636,489-644,531
					s-114,116-128,177s-60,207-64,250s-16,115-12,173S-810,1181-810,1181z"/>
				<path class="st2" d="M-838,1161c80-68,90-96,138-104s72-26,94-66s38-62,82-84s90-64,98-96s30-52,56-66s100-58,100-104
					s42-90,70-108s72-32,78-70s32-50,52-68s46-36,46-82s8-34-22-64s-46-32-80-18s-100-20-124,8s-137,72-180.5,106S-664,469-672,511
					s-114,116-128,177s-60,207-64,250s-16,115-12,173S-838,1161-838,1161z"/>
				<path class="st3" d="M-862,1142c80-68,90-96,138-104s72-26,94-66s38-62,82-84s90-64,98-96s30-52,56-66s100-58,100-104
					s42-90,70-108s72-32,78-70s32-50,52-68s46-36,46-82s8-34-22-64s-46-32-80-18s-100-20-124,8s-137,72-180.5,106S-688,450-696,492
					s-114,116-128,177s-60,207-64,250s-16,115-12,173S-862,1142-862,1142z"/>
				<path class="st4" d="M-890,1115c80-68,90-96,138-104s72-26,94-66s38-62,82-84s90-64,98-96s30-52,56-66s100-58,100-104
					s42-90,70-108s72-32,78-70s32-50,52-68s46-36,46-82s8-34-22-64s-46-32-80-18s-100-20-124,8s-137,72-180.5,106S-716,423-724,465
					s-114,116-128,177s-60,207-64,250s-16,115-12,173S-890,1115-890,1115z"/>
			</g>
		</g>
		<g>
			<g>
				<path class="st0" d="M-916,1089c80-68,90-96,138-104s72-26,94-66s38-62,82-84s90-64,98-96s30-52,56-66s100-58,100-104
					s42-90,70-108s72-32,78-70s32-50,52-68s46-36,46-82s8-34-22-64s-46-32-80-18s-100-20-124,8s-137,72-180.5,106S-742,397-750,439
					s-114,116-128,177s-60,207-64,250s-16,115-12,173S-916,1089-916,1089z"/>
				<path class="st1" d="M-944,1063c80-68,90-96,138-104s72-26,94-66s38-62,82-84s90-64,98-96s30-52,56-66s100-58,100-104
					s42-90,70-108s72-32,78-70s32-50,52-68s46-36,46-82s8-34-22-64s-46-32-80-18s-100-20-124,8s-137,72-180.5,106S-770,371-778,413
					s-114,116-128,177s-60,207-64,250s-16,115-12,173S-944,1063-944,1063z"/>
				<path class="st2" d="M-972,1043c80-68,90-96,138-104s72-26,94-66s38-62,82-84s90-64,98-96s30-52,56-66s100-58,100-104
					s42-90,70-108s72-32,78-70s32-50,52-68s46-36,46-82s8-34-22-64s-46-32-80-18s-100-20-124,8s-137,72-180.5,106S-798,351-806,393
					s-114,116-128,177s-60,207-64,250s-16,115-12,173S-972,1043-972,1043z"/>
				<path class="st3" d="M-996,1024c80-68,90-96,138-104s72-26,94-66s38-62,82-84s90-64,98-96s30-52,56-66s100-58,100-104
					s42-90,70-108s72-32,78-70s32-50,52-68s46-36,46-82s8-34-22-64s-46-32-80-18s-100-20-124,8s-137,72-180.5,106S-822,332-830,374
					s-114,116-128,177s-60,207-64,250s-16,115-12,173S-996,1024-996,1024z"/>
				<path class="st4" d="M-1024,997c80-68,90-96,138-104s72-26,94-66s38-62,82-84s90-64,98-96s30-52,56-66s100-58,100-104
					s42-90,70-108s72-32,78-70s32-50,52-68s46-36,46-82s8-34-22-64s-46-32-80-18s-100-20-124,8s-137,72-180.5,106S-850,305-858,347
					s-114,116-128,177s-60,207-64,250s-16,115-12,173S-1024,997-1024,997z"/>
			</g>
			<g>
				<path class="st0" d="M-1051,978c80-68,90-96,138-104s72-26,94-66s38-62,82-84s90-64,98-96s30-52,56-66s100-58,100-104
					s42-90,70-108s72-32,78-70s32-50,52-68s46-36,46-82s8-34-22-64s-46-32-80-18s-100-20-124,8s-137,72-180.5,106S-877,286-885,328
					s-114,116-128,177s-60,207-64,250s-16,115-12,173S-1051,978-1051,978z"/>
				<path class="st1" d="M-1079,952c80-68,90-96,138-104s72-26,94-66s38-62,82-84s90-64,98-96s30-52,56-66s100-58,100-104
					s42-90,70-108s72-32,78-70s32-50,52-68s46-36,46-82s8-34-22-64s-46-32-80-18s-100-20-124,8s-137,72-180.5,106S-905,260-913,302
					s-114,116-128,177s-60,207-64,250s-16,115-12,173S-1079,952-1079,952z"/>
				<path class="st2" d="M-1107,932c80-68,90-96,138-104s72-26,94-66s38-62,82-84s90-64,98-96s30-52,56-66s100-58,100-104
					s42-90,70-108s72-32,78-70s32-50,52-68s46-36,46-82s8-34-22-64s-46-32-80-18s-100-20-124,8s-137,72-180.5,106S-933,240-941,282
					s-114,116-128,177s-60,207-64,250s-16,115-12,173S-1107,932-1107,932z"/>
				<path class="st3" d="M-1131,913c80-68,90-96,138-104s72-26,94-66s38-62,82-84s90-64,98-96s30-52,56-66s100-58,100-104
					s42-90,70-108s72-32,78-70s32-50,52-68s46-36,46-82s8-34-22-64s-46-32-80-18s-100-20-124,8S-680,63-723.5,97S-957,221-965,263
					s-114,116-128,177s-60,207-64,250s-16,115-12,173S-1131,913-1131,913z"/>
				<path class="st4" d="M-1159,886c80-68,90-96,138-104s72-26,94-66s38-62,82-84s90-64,98-96s30-52,56-66s100-58,100-104
					s42-90,70-108s72-32,78-70s32-50,52-68s46-36,46-82s8-34-22-64s-46-32-80-18s-100-20-124,8S-708,36-751.5,70S-985,194-993,236
					s-114,116-128,177s-60,207-64,250s-16,115-12,173S-1159,886-1159,886z"/>
			</g>
		</g>
	</g>
</g>
</svg>
